<?xml version="1.0" encoding="utf-8"?>
<!-- Generator: Adobe Illustrator 22.1.0, SVG Export Plug-In . SVG Version: 6.00 Build 0)  -->
<svg version="1.1" id="Layer_1" xmlns="http://www.w3.org/2000/svg" xmlns:xlink="http://www.w3.org/1999/xlink" x="0px" y="0px"
	 viewBox="0 0 225.8 227.7" enable-background="new 0 0 225.8 227.7" xml:space="preserve">
<g>
	<path fill="#FFFFFF" stroke="#5F6C70" stroke-width="4.8276" d="M112.9,106.8"/>
	<path fill="#FFFFFF" stroke="#5F6C70" stroke-width="4.0448" d="M112.9,108.3"/>
	<g>
		<g>
			<path fill="#FFFFFF" d="M110.6,188.3c0,1.3,1,2.3,2.3,2.3s2.3-1,2.3-2.3s-1-2.3-2.3-2.3C111.6,186.1,110.6,187.2,110.6,188.3z"/>
		</g>
	</g>
	<path fill="#FFFFFF" stroke="#5F6C70" stroke-width="4.9279" d="M112.9,104.2"/>
	<g>
		<g>
			<path fill="#00AF87" d="M34.4,163.8c-4.4,0-7.1,2.6-7.1,7c0,6.5,6.5,11.7,14.5,11.7c0,0,36.8-0.3,37.5-0.6
				c-0.5-0.4-39.4-17-39.4-17C38.1,164.2,36.2,163.8,34.4,163.8z"/>
			<path fill="#00AF87" d="M39.1,24.3c-6.5,0-11.7,6.5-11.7,14.5l0.6,37.5l17-39.4c1.6-3.9,1.7-7.6,0-10
				C43.7,25.3,41.7,24.3,39.1,24.3z"/>
			<path fill="#00AF87" d="M218,92.8c-3.2,0-6.3,2.8-8.1,7.2L194,139.8l26.9-26.1c2.8-2.8,4.4-6.3,4.8-9.8c0.3-3.4-0.7-6.5-2.9-8.7
				C221.4,93.6,219.7,92.8,218,92.8z"/>
			<path fill="#00AF87" d="M7.8,92.8c-1.7,0-3.4,0.8-4.9,2.3c-2.2,2.2-3.2,5.3-2.9,8.7c0.3,3.6,2,7,4.8,9.8l26.9,26.2L15.9,100
				C14.1,95.6,11,92.8,7.8,92.8z"/>
			<path fill="#00AF87" d="M146.4,181.9l37.5,0.6c8.1,0,14.5-5.3,14.5-11.7c0-4.4-2.7-7-7.1-7c-1.8,0-3.6,0.4-5.6,1.3L146.4,181.9z"
				/>
			<path fill="#00AF87" d="M186.6,24.3c-2.6,0-4.6,0.9-5.8,2.7c-1.6,2.4-1.6,6,0,10l17,39.4l0.6-37.5
				C198.4,30.9,193.2,24.3,186.6,24.3z"/>
			<path fill="#00AF87" d="M13.6,130.9c-2.7,0-4.8,1.6-6,4.4c-1.2,2.9-0.9,6.1,0.7,9.1c1.7,3.2,4.6,5.8,8.2,7.2
				c0,0,34.2,13.8,34.8,13.8c-0.3-0.6-29.9-30.7-29.9-30.7C18.9,132.3,16.1,130.9,13.6,130.9z"/>
			<path fill="#00AF87" d="M212.2,130.9c-2.6,0-5.4,1.4-8,3.9l-29.9,30.7l34.8-13.8c3.6-1.5,6.5-4.1,8.2-7.2
				c1.6-3.1,1.8-6.4,0.7-9.1C217,132.5,214.8,130.9,212.2,130.9z"/>
			<path fill="#00AF87" d="M162.5,7.6c-1.1,0-2.3,1.3-3.2,3.4c-2.5,6.1,0.2,16.3,6,22l16.2,15.4l-13.8-34.8
				C165.9,9.1,163.8,7.6,162.5,7.6z"/>
			<path fill="#00AF87" d="M63.2,7.6c-1.3,0-3.3,1.6-5.1,6L44.2,48.3L60.4,33c5.8-5.8,8.5-15.9,6-22C65.4,8.8,64.3,7.6,63.2,7.6z"/>
			<path fill="#00AF87" d="M17.1,55.5c-1,0-2,0.3-3.1,0.7c-2.9,1.2-5,3.7-6,7C6.9,66.6,7.1,70.4,8.6,74l14.9,34.4l0.6-42.8
				C24.1,59.5,21.3,55.5,17.1,55.5z"/>
			<path fill="#00AF87" d="M208.7,55.5c-4.2,0-7,4.1-7,10.2l0.6,42.8l14.9-34.4c1.5-3.6,1.8-7.5,0.7-10.9c-1-3.4-3.2-5.8-6-7
				C210.7,55.6,209.6,55.5,208.7,55.5z"/>
		</g>
		<g>
			<path fill="#00AF87" d="M55.8,54.3H51v-2.4h12.5v2.4h-4.8v12.3h-2.9C55.8,66.6,55.8,54.3,55.8,54.3z"/>
			<path fill="#00AF87" d="M65.9,51.9h4.8c1.7,0,3,0.4,4,1.3c1,0.8,1.4,2,1.4,3.4c0,0.8-0.3,1.7-0.7,2.3c-0.4,0.7-1,1.3-1.8,1.7
				l3.9,6h-3.4l-3.2-5.3c-0.3,0-0.4,0-0.6,0s-0.3,0-0.4,0h-1.4v5.3h-2.9V51.9H65.9z M68.8,59h1.4c2,0,3-0.8,3-2.4
				c0-0.8-0.3-1.3-0.8-1.8s-1.3-0.6-2.2-0.6h-1.6L68.8,59L68.8,59z"/>
			<path fill="#00AF87" d="M84.6,51.9h3.2l5.9,14.8h-3.2L89,62.8h-6l-1.4,3.9h-2.9L84.6,51.9z M88.2,60.4l-2.2-6l-2.2,6H88.2z"/>
			<path fill="#00AF87" d="M92.4,51.9h3.3l3.9,11.6l3.9-11.6h3.2l-5.6,14.8H98L92.4,51.9z"/>
			<path fill="#00AF87" d="M108.9,51.9h9.7v2.5h-6.9v3.5h6.1v2.4h-6.1v3.8h7.1v2.5h-10.1L108.9,51.9L108.9,51.9z"/>
			<path fill="#00AF87" d="M122,51.9h3v12.3h6.7v2.4h-9.7L122,51.9L122,51.9z"/>
			<path fill="#00AF87" d="M134.1,51.9h9.7v2.5h-6.9v3.5h6.1v2.4h-6.1v3.8h7.1v2.5H134L134.1,51.9L134.1,51.9z"/>
			<path fill="#00AF87" d="M147.2,51.9h4.8c1.7,0,3,0.4,4,1.3c1,0.8,1.4,2,1.4,3.4c0,0.8-0.3,1.7-0.7,2.3c-0.4,0.7-1,1.3-1.8,1.7
				l3.9,6h-3.4l-3.2-5.3c-0.3,0-0.4,0-0.6,0s-0.3,0-0.4,0h-1.4v5.3H147V51.9H147.2z M150,59h1.4c2,0,3-0.8,3-2.4
				c0-0.8-0.3-1.3-0.8-1.8c-0.5-0.4-1.3-0.6-2.2-0.6H150L150,59L150,59z"/>
			<path fill="#00AF87" d="M165.3,67c-0.9,0-1.8-0.1-2.8-0.3c-0.9-0.3-1.7-0.5-2.2-0.9l0.3-2.5c0.6,0.4,1.3,0.8,2.2,0.9
				c0.8,0.3,1.6,0.3,2.4,0.3c0.9,0,1.6-0.2,2.1-0.5c0.5-0.3,0.8-0.8,0.8-1.4c0-0.5-0.2-0.9-0.6-1.3c-0.4-0.3-1.2-0.7-2.3-1
				c-1.6-0.5-2.8-1.1-3.4-1.8c-0.7-0.7-1-1.6-1-2.8c0-0.8,0.3-1.6,0.7-2.2c0.4-0.7,1-1.1,1.8-1.5c0.8-0.3,1.8-0.5,2.9-0.5
				c0.8,0,1.5,0.1,2.3,0.3c0.8,0.2,1.5,0.4,2.1,0.8l-0.4,2.4c-0.6-0.3-1.2-0.6-1.9-0.8c-0.7-0.2-1.3-0.3-2-0.3
				c-0.8,0-1.4,0.2-1.8,0.4c-0.4,0.3-0.7,0.8-0.7,1.3c0,0.3,0.1,0.7,0.3,0.8c0.2,0.2,0.4,0.4,0.8,0.6c0.3,0.2,0.9,0.4,1.6,0.6
				c1.8,0.6,3,1.2,3.8,1.9c0.8,0.8,1.1,1.7,1.1,2.9c0,1.3-0.5,2.4-1.5,3.2C168.5,66.6,167.1,67,165.3,67z"/>
			<path fill="#00AF87" d="M172.4,56.6c0.5-1.5,0.8-3.1,0.8-4.9h2.5c0,0.8-0.2,1.7-0.4,2.5c-0.3,0.8-0.6,1.6-0.9,2.3L172.4,56.6
				L172.4,56.6z"/>
		</g>
		<g>
			<path fill="#00AF87" d="M63.4,95.8c-2.3,0-4.2-0.4-6-1.3c-1.8-0.9-3.1-2.2-4.1-3.9c-1-1.7-1.5-3.6-1.5-5.9c0-2.1,0.5-4,1.4-5.8
				c0.9-1.7,2.3-3,4.1-4s3.9-1.5,6.2-1.5c1.2,0,2.3,0.2,3.6,0.5c1.3,0.3,2.3,0.8,3.2,1.3l-0.7,3.7c-2.1-1-4.1-1.5-6-1.5
				c-1.4,0-2.7,0.3-3.8,0.9s-1.9,1.4-2.6,2.5c-0.7,1.1-0.9,2.4-0.9,3.9c0,2.3,0.7,4,2,5.3c1.3,1.3,3.1,1.9,5.4,1.9
				c1,0,2-0.2,3.2-0.4c1.1-0.3,2.2-0.7,3.2-1.2l0.4,3.8c-1,0.6-2.1,1-3.4,1.3C66,95.6,64.8,95.8,63.4,95.8z"/>
			<path fill="#00AF87" d="M74.8,73.9h4.4v8.7h10.4v-8.7H94v21.7h-4.4v-9.4H79.2v9.4h-4.4V73.9z"/>
			<path fill="#00AF87" d="M109.4,96c-2.1,0-4-0.5-5.7-1.4c-1.7-0.9-3.1-2.3-4.1-4c-1-1.8-1.6-3.7-1.6-5.9c0-2,0.5-3.9,1.4-5.6
				c0.9-1.7,2.3-3.1,4-4.1c1.7-1,3.7-1.6,6-1.6c2.1,0,4,0.5,5.8,1.4c1.8,0.9,3.1,2.3,4.1,4c1,1.8,1.6,3.7,1.6,5.9
				c0,2-0.5,3.9-1.4,5.6c-0.9,1.7-2.3,3.1-4.1,4.1C113.6,95.4,111.7,96,109.4,96z M109.4,92.1c1.3,0,2.4-0.3,3.5-0.9
				c1.1-0.6,1.9-1.5,2.5-2.6c0.6-1.2,0.9-2.4,0.9-3.9c0-1.3-0.3-2.6-0.8-3.8c-0.6-1.1-1.4-2-2.4-2.7c-1-0.7-2.3-1-3.7-1
				c-1.3,0-2.4,0.3-3.5,0.9c-1,0.6-1.8,1.5-2.5,2.6c-0.6,1.1-0.9,2.4-0.9,3.9c0,1.3,0.3,2.6,0.8,3.8c0.6,1.1,1.3,2,2.4,2.7
				C106.9,91.7,108.1,92.1,109.4,92.1z"/>
			<path fill="#00AF87" d="M124.9,73.9h4.4v21.7h-4.4V73.9z"/>
			<path fill="#00AF87" d="M144.8,95.8c-2.3,0-4.2-0.4-6-1.3c-1.8-0.9-3.1-2.2-4.1-3.9c-1-1.7-1.5-3.6-1.5-5.9c0-2.1,0.5-4,1.4-5.8
				c0.9-1.7,2.3-3,4.1-4c1.8-1,3.9-1.5,6.2-1.5c1.2,0,2.3,0.2,3.6,0.5s2.3,0.8,3.2,1.3l-0.7,3.7c-2.1-1-4.1-1.5-6-1.5
				c-1.4,0-2.7,0.3-3.8,0.9s-1.9,1.4-2.6,2.5s-0.9,2.4-0.9,3.9c0,2.3,0.7,4,2,5.3c1.3,1.3,3.1,1.9,5.4,1.9c1,0,2-0.2,3.2-0.4
				c1.1-0.3,2.2-0.7,3.2-1.2l0.4,3.8c-1,0.6-2.1,1-3.4,1.3C147.4,95.6,146.2,95.8,144.8,95.8z"/>
			<path fill="#00AF87" d="M156.2,73.9h14.4v3.7h-10.1v5.2h8.9v3.6h-9v5.5h10.5v3.7h-14.7V73.9z"/>
		</g>
	</g>
	<g>
		<g>
			<path fill="#FFFFFF" d="M84.1,164.8c-12.5,0-22.7-10.1-22.7-22.7c0-12.5,10.1-22.7,22.7-22.7s22.7,10.1,22.7,22.7
				S96.6,164.8,84.1,164.8"/>
			<path fill="#FFFFFF" d="M140.4,164.8c-12.6,0-22.7-10.1-22.7-22.7c0-12.5,10.1-22.7,22.7-22.7c12.5,0,22.7,10.1,22.7,22.7
				S152.8,164.8,140.4,164.8"/>
			<path fill="#F8C40F" d="M84,114c8-3.5,18-5.4,28-5.4c10.1,0,19.1,1.9,27.3,5.4c-15.1,0.5-27.3,12.8-27.3,28
				C112,126.7,99.5,114.1,84,114"/>
			<path fill="#EF6945" d="M83.8,137.7c-2.5,0-4.6,2.1-4.6,4.6c0,2.5,2.1,4.6,4.6,4.6c2.5,0,4.6-2.1,4.6-4.6
				C88.3,139.7,86.2,137.7,83.8,137.7"/>
			<path fill="#00AF87" d="M140.3,137.7c-2.5,0-4.6,2.1-4.6,4.6c0,2.5,2.1,4.6,4.6,4.6s4.6-2.1,4.6-4.6
				C144.9,139.7,142.8,137.7,140.3,137.7"/>
			<g>
				<path fill="#000A12" d="M83.8,128.4c-7.6,0-13.6,6.1-13.6,13.6s6.1,13.6,13.6,13.6c7.6,0,13.6-6.1,13.6-13.6
					C97.4,134.6,91.3,128.4,83.8,128.4 M83.8,151.6c-5.2,0-9.4-4.2-9.4-9.4s4.2-9.4,9.4-9.4s9.4,4.2,9.4,9.4
					C93.3,147.4,89,151.6,83.8,151.6 M168.7,114.4h-18.8c-9.6-6.5-22.7-10.5-37.7-10.5s-29,4-38.5,10.5H55.7c2.9,3.4,5.1,8,5.6,11.2
					c-3.3,4.6-5.4,10.3-5.4,16.5c0,15.5,12.6,28.1,28.1,28.1c8.8,0,16.7-4,21.9-10.4c2.1,2.5,5.6,7.4,6.3,8.8c0,0,4-6,6.3-8.8
					c5.2,6.4,13,10.4,21.8,10.4c15.5,0,28.1-12.6,28.1-28.1c0-6.2-2-11.9-5.4-16.5C163.6,122.6,165.8,117.9,168.7,114.4 M84.1,164.8
					c-12.5,0-22.7-10.1-22.7-22.7c0-12.5,10.1-22.7,22.7-22.7s22.7,10.1,22.7,22.7S96.6,164.8,84.1,164.8 M84.2,114
					c8-3.5,18-5.4,28-5.4c10.1,0,19.2,1.9,27.3,5.4c-15.1,0.5-27.3,12.8-27.3,28C112.2,126.7,99.7,114.1,84.2,114 M140.4,164.8
					c-12.6,0-22.7-10.1-22.7-22.7c0-12.5,10.1-22.7,22.7-22.7c12.5,0,22.7,10.1,22.7,22.7S152.8,164.8,140.4,164.8 M140.4,128.4
					c-7.6,0-13.6,6.1-13.6,13.6s6.1,13.6,13.6,13.6s13.6-6.1,13.6-13.6C154,134.5,147.9,128.4,140.4,128.4 M140.4,151.5
					c-5.2,0-9.4-4.2-9.4-9.4s4.2-9.4,9.4-9.4s9.4,4.2,9.4,9.4S145.6,151.5,140.4,151.5"/>
				<path fill="#000A12" d="M175.1,119h-0.9v-3.7h1.4c0.7,0,1.5,0.1,1.5,1.1c0,0.5-0.2,0.9-0.8,1l0.9,1.7h-1l-0.8-1.6h-0.3
					L175.1,119L175.1,119z M175.1,116.9c0.5,0,0.6,0,0.7,0c0.3-0.1,0.3-0.3,0.3-0.5c0-0.3-0.1-0.4-0.3-0.5c-0.1,0-0.3,0-0.8,0
					L175.1,116.9L175.1,116.9z"/>
				<path fill="#000A12" d="M175.7,113.8c-1.9,0-3.4,1.6-3.4,3.4s1.6,3.4,3.4,3.4c1.9,0,3.4-1.5,3.4-3.4
					C179,115.4,177.5,113.8,175.7,113.8 M175.7,120c-1.6,0-2.7-1.3-2.7-2.7c0-1.6,1.3-2.7,2.7-2.7c1.6,0,2.7,1.3,2.7,2.7
					C178.4,118.8,177.1,120,175.7,120"/>
			</g>
		</g>
		<g>
			<path fill="#000A12" d="M35.2,196.3v-3h-5v-4.6l-3.8,1.2v3.4h-2.9v3h2.9v9.9c0,4.4,1.8,6.7,5.3,6.7c1.3,0,2.4-0.2,3.3-0.5h0.1
				l-0.2-3l-0.2,0.1c-0.5,0.2-1.2,0.2-2.1,0.2s-1.5-0.3-1.9-0.8c-0.4-0.6-0.6-1.5-0.6-2.7v-9.6L35.2,196.3L35.2,196.3z"/>
			<path fill="#000A12" d="M48.6,192.9c-0.4-0.1-0.8-0.1-1-0.1c-1.2,0-2.3,0.4-3.3,1.2c-0.9,0.6-1.5,1.5-2,2.5l-0.2-3.2h-3.5v0.2
				c0.1,1.6,0.2,3.5,0.2,6v13h3.9v-10.1c0-1.9,0.5-3.2,1.4-4.3c0.9-1,2-1.5,3.2-1.5c0.5,0,0.9,0,1.2,0.1h0.2L48.6,192.9L48.6,192.9z
				"/>
			<rect x="52.1" y="193.3" fill="#000A12" width="3.9" height="19.1"/>
			<path fill="#000A12" d="M54.1,190.1c0.8,0,1.4-0.2,1.8-0.7c0.5-0.5,0.7-1.1,0.7-1.8s-0.2-1.3-0.7-1.8c-0.5-0.5-1.1-0.7-1.8-0.7
				s-1.4,0.2-1.8,0.7c-0.5,0.5-0.7,1.1-0.7,1.8s0.2,1.3,0.7,1.8C52.8,189.8,53.4,190.1,54.1,190.1"/>
			<path fill="#000A12" d="M75.2,195.4c-1.6-1.9-3.5-2.7-5.8-2.7c-2.8,0-5,1.1-6.5,3.2l-0.2-2.8h-3.6v0.3c0.1,1.6,0.1,3.6,0.1,6.2
				v20.6h3.9v-9.8c0.6,0.7,1.3,1.3,2.1,1.8c1.1,0.5,2.3,0.8,3.4,0.8c2.5,0,4.6-1,6.2-2.8c1.7-1.9,2.5-4.4,2.5-7.6
				C77.6,199.6,76.8,197.3,75.2,195.4 M65.5,197c0.9-0.6,1.8-0.9,2.7-0.9c1.6,0,2.8,0.6,3.7,1.9c1,1.3,1.5,2.8,1.5,4.7
				c0,2.2-0.5,3.8-1.5,5.1c-1,1.3-2.3,1.9-3.9,1.9c-1.4,0-2.5-0.5-3.4-1.5c-1-1-1.5-2.2-1.5-3.6v-3.1c0-0.6,0.2-1.3,0.5-2.2
				C64.2,198.4,64.8,197.6,65.5,197"/>
		</g>
		<g>
			<path fill="#00AF87" d="M198.3,196.9h-0.9v-3.7h1.4c0.7,0,1.5,0.1,1.5,1.1c0,0.5-0.2,0.8-0.8,1l0.9,1.7h-1l-0.8-1.6h-0.3
				L198.3,196.9L198.3,196.9z M198.3,194.7c0.5,0,0.6,0,0.7,0c0.3-0.1,0.3-0.3,0.3-0.5c0-0.3-0.1-0.4-0.3-0.5c-0.1,0-0.3,0-0.8,0
				L198.3,194.7L198.3,194.7z"/>
			<path fill="#00AF87" d="M198.9,191.7c-1.9,0-3.4,1.5-3.4,3.4c0,1.9,1.6,3.4,3.4,3.4c1.9,0,3.4-1.6,3.4-3.4
				C202.3,193.3,200.8,191.7,198.9,191.7 M198.9,197.9c-1.6,0-2.7-1.3-2.7-2.7c0-1.6,1.3-2.7,2.7-2.7c1.6,0,2.7,1.3,2.7,2.7
				C201.6,196.6,200.5,197.9,198.9,197.9"/>
			<path fill="#00AF87" d="M95.2,212.2c-0.2-1.1-0.3-2.6-0.3-4.5v-6.9c0-2.5-0.7-4.6-2-6c-1.3-1.4-3.2-2.1-5.7-2.1
				c-2.5,0-4.7,0.6-6.6,1.8l-0.1,0.1l0.9,2.6l0.2-0.1c1.5-1,3.1-1.4,5.1-1.4c1.4,0,2.5,0.4,3.1,1.1c0.7,0.7,1.1,1.8,1.1,3v0.2
				c-3.7,0-6.7,0.6-8.6,1.9c-2.1,1.3-3,3-3,5.4c0,1.6,0.6,2.8,1.7,3.9s2.5,1.7,4.4,1.7c2.5,0,4.4-0.9,5.9-2.6l0.4,2.2h3.6
				L95.2,212.2z M89.7,208.6c-0.9,0.8-2.1,1.3-3.3,1.3c-0.9,0-1.7-0.3-2.3-0.8c-0.6-0.5-0.9-1.3-0.9-2.3c0-1.2,0.6-2.2,1.7-2.8
				c1.2-0.7,3.1-1.1,6.1-1.1v2.9C91,206.8,90.5,207.8,89.7,208.6"/>
			<path fill="#00AF87" d="M115.2,212.5v-0.3c-0.1-1.2-0.2-2.8-0.2-4.9v-23H111V195c-0.5-0.6-1.2-1.2-2-1.6c-1-0.6-2.3-0.8-3.5-0.8
				c-2.5,0-4.5,1-6.1,2.9c-1.7,2-2.5,4.4-2.5,7.5c0,2.8,0.8,5.2,2.4,7c1.6,1.9,3.5,2.7,5.9,2.7c1.5,0,2.7-0.3,3.9-1
				c0.9-0.6,1.7-1.3,2.3-2.2l0.2,2.7L115.2,212.5L115.2,212.5z M111,201.1v3c0,1.7-0.5,2.9-1.5,3.9c-1,1-2.1,1.5-3.3,1.5
				c-1.7,0-2.9-0.6-3.8-1.9s-1.4-2.8-1.4-4.8c0-2.1,0.5-3.7,1.5-5c1-1.3,2.3-1.9,3.8-1.9c1.3,0,2.5,0.5,3.3,1.4
				C110.5,198.4,111,199.6,111,201.1"/>
			<path fill="#00AF87" d="M131.3,193.3c0,0-4.9,10-5.3,11.2c-0.5-1.4-5.3-11.2-5.3-11.2h-4.3l9.6,19.1l9.4-19.1H131.3z"/>
			<rect x="137.4" y="193.3" fill="#00AF87" width="3.9" height="19.1"/>
			<path fill="#00AF87" d="M139.4,190.1c0.8,0,1.4-0.2,1.8-0.7c0.5-0.5,0.7-1.1,0.7-1.8s-0.2-1.3-0.7-1.8c-0.5-0.5-1.1-0.7-1.8-0.7
				s-1.4,0.2-1.8,0.7c-0.5,0.5-0.7,1.1-0.7,1.8s0.2,1.3,0.7,1.8C138.1,189.8,138.7,190.1,139.4,190.1"/>
			<path fill="#00AF87" d="M156.9,203.5c-0.8-0.9-2.2-1.7-4-2.4c-1.5-0.5-2.5-1-2.9-1.5c-0.5-0.4-0.7-1-0.7-1.6
				c0-0.7,0.3-1.3,0.8-1.7c0.5-0.4,1.3-0.7,2.2-0.7c1.4,0,2.6,0.4,4,1.1l0.2,0.1l1-2.9l-0.1-0.1c-1.4-0.8-3-1.2-4.9-1.2
				c-2.1,0-3.7,0.6-5,1.7c-1.3,1.1-1.9,2.5-1.9,4.1c0,2.5,1.8,4.3,5.3,5.5c1.3,0.4,2.2,0.9,2.7,1.4c0.5,0.5,0.8,1.1,0.8,1.9
				c0,0.8-0.3,1.4-0.9,1.9s-1.5,0.7-2.6,0.7c-1.6,0-3.1-0.5-4.7-1.4l-0.2-0.1l-1,3l0.1,0.1c1.7,0.9,3.5,1.4,5.6,1.4
				c2.3,0,4.1-0.6,5.4-1.6c1.4-1.1,2.1-2.5,2.1-4.3C158.1,205.5,157.7,204.4,156.9,203.5"/>
			<path fill="#00AF87" d="M176.2,195.5c-1.7-1.9-3.9-2.7-6.6-2.7c-2.7,0-5,1-6.8,2.7c-1.8,1.9-2.6,4.3-2.6,7.4
				c0,2.9,0.9,5.3,2.5,7.1c1.8,1.9,3.9,2.7,6.6,2.7c1.7,0,3.3-0.4,4.8-1.3c1.5-0.8,2.6-2.1,3.4-3.5c0.8-1.6,1.2-3.3,1.2-5.4
				C178.7,199.7,177.9,197.4,176.2,195.5 M169.3,209.8c-1.6,0-2.8-0.7-3.8-2c-1-1.3-1.6-3-1.6-5c0-2.1,0.5-3.7,1.5-5.1
				c1-1.3,2.4-2,4-2c1.7,0,2.9,0.7,3.9,2c1,1.4,1.5,3,1.5,4.9c0,2.1-0.5,3.8-1.6,5.1C172.2,209.1,170.9,209.8,169.3,209.8"/>
			<path fill="#00AF87" d="M191.9,192.9c-0.4-0.1-0.8-0.1-1-0.1c-1.2,0-2.3,0.4-3.3,1.2c-0.9,0.6-1.5,1.5-2,2.5l-0.2-3.2h-3.5v0.2
				c0.1,1.6,0.2,3.5,0.2,6v13h3.9v-10.1c0-1.9,0.5-3.2,1.4-4.3c0.9-1,2-1.5,3.2-1.5c0.5,0,0.9,0,1.2,0.1h0.2L191.9,192.9
				L191.9,192.9z"/>
		</g>
	</g>
</g>
</svg>
