<?xml version="1.0" encoding="utf-8"?>
<!-- Generator: Adobe Illustrator 22.1.0, SVG Export Plug-In . SVG Version: 6.00 Build 0)  -->
<svg version="1.1" id="Layer_1" xmlns="http://www.w3.org/2000/svg" xmlns:xlink="http://www.w3.org/1999/xlink" x="0px" y="0px"
	 viewBox="0 0 225.8 227.7" enable-background="new 0 0 225.8 227.7" xml:space="preserve">
<g>
	<g>
		<g enable-background="new    ">
			<path d="M67.2,202.4h6.4c1.3,0,2.2,0.1,2.9,0.2c0.6,0.1,1.2,0.3,1.7,0.7c0.5,0.3,0.9,0.8,1.2,1.3c0.3,0.6,0.5,1.2,0.5,1.9
				c0,0.8-0.2,1.4-0.6,2.1c-0.4,0.6-1,1.1-1.7,1.4c1,0.3,1.7,0.8,2.3,1.5c0.5,0.7,0.8,1.5,0.8,2.4c0,0.7-0.2,1.4-0.5,2.1
				c-0.3,0.7-0.8,1.2-1.4,1.7c-0.6,0.4-1.3,0.7-2.2,0.8c-0.5,0.1-1.8,0.1-3.9,0.1h-5.5V202.4z M70.4,205.1v3.7h2.1
				c1.3,0,2.1,0,2.4-0.1c0.6-0.1,1-0.3,1.3-0.6c0.3-0.3,0.5-0.7,0.5-1.3c0-0.5-0.1-0.9-0.4-1.2c-0.3-0.3-0.7-0.5-1.2-0.6
				c-0.3,0-1.2-0.1-2.8-0.1H70.4z M70.4,211.5v4.3h3c1.2,0,1.9,0,2.2-0.1c0.5-0.1,0.9-0.3,1.2-0.6c0.3-0.3,0.5-0.8,0.5-1.4
				c0-0.5-0.1-0.9-0.4-1.2c-0.2-0.3-0.6-0.6-1-0.7c-0.4-0.2-1.4-0.2-2.9-0.2H70.4z"/>
			<path d="M84.4,218.6v-16.1h6.8c1.7,0,3,0.1,3.8,0.4c0.8,0.3,1.4,0.8,1.9,1.5c0.5,0.7,0.7,1.6,0.7,2.5c0,1.2-0.4,2.2-1.1,3
				c-0.7,0.8-1.8,1.3-3.2,1.5c0.7,0.4,1.3,0.9,1.7,1.4c0.5,0.5,1.1,1.4,1.9,2.6l2,3.1H95l-2.4-3.5c-0.8-1.3-1.4-2-1.7-2.4
				s-0.6-0.5-1-0.7c-0.3-0.1-0.9-0.2-1.6-0.2h-0.7v6.7H84.4z M87.6,209.3h2.4c1.6,0,2.5-0.1,2.9-0.2s0.7-0.4,0.9-0.7
				s0.3-0.7,0.3-1.2c0-0.5-0.1-1-0.4-1.3c-0.3-0.3-0.7-0.5-1.2-0.6c-0.3,0-1.1-0.1-2.4-0.1h-2.5V209.3z"/>
			<path d="M101,210.6c0-1.6,0.2-3,0.7-4.1c0.4-0.8,0.9-1.6,1.5-2.2c0.6-0.7,1.3-1.1,2.1-1.5c1-0.4,2.2-0.6,3.5-0.6
				c2.4,0,4.3,0.7,5.7,2.2c1.4,1.5,2.1,3.5,2.1,6.1c0,2.6-0.7,4.6-2.1,6.1c-1.4,1.5-3.3,2.2-5.7,2.2c-2.4,0-4.3-0.7-5.7-2.2
				C101.7,215.2,101,213.2,101,210.6z M104.3,210.5c0,1.8,0.4,3.2,1.3,4.1s1.9,1.4,3.2,1.4s2.4-0.5,3.2-1.4s1.2-2.3,1.2-4.2
				c0-1.8-0.4-3.2-1.2-4.1c-0.8-0.9-1.9-1.4-3.2-1.4s-2.4,0.5-3.2,1.4C104.7,207.3,104.3,208.6,104.3,210.5z"/>
			<path d="M120.2,218.6v-16.1h3.2l6.6,10.8v-10.8h3v16.1h-3.3l-6.5-10.5v10.5H120.2z"/>
			<path d="M136,218.6v-2.9l8.5-10.4h-7.5v-2.7h11.8v2.5l-8.8,10.9h9.2v2.7H136z"/>
			<path d="M152.1,218.6v-16.1H164v2.7h-8.7v3.6h8.1v2.7h-8.1v4.4h9v2.7H152.1z"/>
		</g>
		<rect x="67.2" y="193.8" width="97.2" height="0.9"/>
		<rect x="67.2" y="226.8" width="97.2" height="0.9"/>
	</g>
	<g>
		<g>
			<path fill="#00AF87" d="M117.7,12.6c-2.4,0.1-4.7,0.1-6.9,0.3c-4.4,0.4-8.5,1.6-12.6,3.1c-2.4,0.8-4.8,1.6-7.2,2.4
				c-4.8,1.5-9.3,0.9-13.5-1.9c-0.5-0.3-0.9-0.3-1.3,0c-0.8,0.5-1.6,0.9-2.5,1.4c3.2,1.2,6.3,2.3,9.4,3.4c-0.3,0.2-0.6,0.6-1,0.8
				c-2.7,1.7-5.5,2-8.4,0.5c-1-0.5-1.6-1.3-1.9-2.6c1.8,0.7,3.4,1.5,5.4,1.4c-0.1-0.2-0.2-0.3-0.2-0.3c-1.6-0.6-3.1-1.2-4.7-1.8
				c-0.3-0.1-0.9-0.1-1.2,0.2c-3,2.3-6.1,4.4-9,6.9c-4.6,3.9-8.5,8.3-12,13.2C46,45.3,42.7,51.4,40.2,58c-2,5.2-3.4,10.5-4.2,16
				c-1,5.5-1.4,11.1-1,16.8c0.3,4,0.7,8,1.6,11.9c1,4.3,2.1,8.6,3.8,12.6c1.7,3.9,3.4,7.8,5.8,11.4c0.8,1.2,1.4,2.5,2.3,3.6
				c2.4,3.5,5,6.8,7.9,9.8c0.2,0.2,0.4,0.4,0.7,0.8c-0.4,0-0.7,0.1-0.9,0.1c-3.3,0-6.6,0-9.8,0c-0.6,0-0.9-0.2-1.2-0.6
				c-4.4-5.9-8-12.4-10.7-19.3c-2.4-6.1-4-12.4-4.9-18.8c-0.8-5.6-1-11.2-0.6-16.8c0.6-10.2,3-20,7.3-29.3
				c3.3-7.4,7.6-14.1,12.9-20.2c5.4-6.2,11.6-11.6,18.5-16c0.7-0.4,1.1-0.9,1.2-1.8c0.2-2.2,0.9-4.3,2.2-6.1
				c0.1-0.1,0.1-0.2,0.1-0.4c-2.2,1.7-2.7,4.2-3.4,6.9c-0.4-0.5-0.7-0.8-0.9-1.3c-1.1-2.1-0.7-4.2,0.5-6.1c1.8-2.9,4.4-4.6,7.8-5.1
				c0.2,0,0.4,0,0.9,0c-2.8,3.4-2.8,7.8-4.9,11.6c0.5-0.2,0.8-0.3,1.1-0.5c2.1-1.1,4.3-2.3,6.4-3.4c5-2.6,10.2-4.2,15.8-5
				c1-0.1,2-0.2,3-0.4c0.1,0,0.2-0.1,0.3-0.2c-2.4-0.4-4.8-0.4-7.1,0c-2.4,0.4-4.7,0.8-7,1.5s-4.5,1.7-6.8,2.6
				c0.1-2.3,1.1-4.8,3-6.8C83,2.1,87,0.6,91.5,0.1c8.1-0.8,15.2,1.6,21.4,6.8C114.8,8.6,116.4,10.5,117.7,12.6z"/>
			<path fill="#00AF87" d="M172.2,141c1-1.1,2-2.2,2.9-3.2c5-5.8,9.1-12.2,12.3-19.1c2.6-5.6,4.4-11.5,5.6-17.6
				c1.3-6.6,1.7-13.3,1.3-20c-0.5-8.8-2.5-17.3-5.9-25.4c-1.8-4.3-4-8.4-6.4-12.4c-0.3-0.4-0.6-0.6-1.1-0.5c-3.6,0.4-6.6-1-9-3.5
				c-1.9-2-3.8-4-5.7-6c-2-2.1-4.4-3.7-6.9-5c-0.2-0.1-0.4-0.2-0.7-0.4c0.7-0.3,1.3-0.7,1.9-0.9c6.5-2.2,12.5-1.5,18,2.6
				c2.8,2.1,4.5,4.8,4.5,8.4c0,0.9-0.3,1.8-0.5,2.7c-2.9-4-6.2-7.2-10.9-8.8c4.9,3.1,8.6,7.4,11.5,12.4c0.1,0,0.2-0.1,0.3-0.1
				c0.5-1.9,0.9-3.9,1.4-5.8c2.2,1.4,2.5,6,0.3,6.9c0.1-1.2,0.3-2.3,0.4-3.5c-0.1,0-0.2,0-0.2,0c-0.3,1.2-0.7,2.4-1,3.7
				c0,0.2,0.1,0.4,0.2,0.6c3.9,6.2,7,12.7,9.1,19.7c0.9,2.9,1.6,5.8,2.2,8.8c1.5,6.8,1.8,13.8,1.5,20.7c-0.3,6.2-1.3,12.4-3,18.4
				c-2,7.1-4.9,13.8-8.7,20c-1.4,2.4-3,4.6-4.6,6.9c-0.2,0.3-0.6,0.6-1,0.6c-2.4,0.1-4.7,0-7.1,0C172.5,141.1,172.4,141,172.2,141z"
				/>
			<path fill="#00AF87" d="M117.1,56.7c2.9,0.1,5.8,0.1,8.7,0.5c3.6,0.5,5.8,3.4,6.1,7.2c0.2,2.9-0.3,5.5-2.6,7.5
				c-1.4,1.2-3,1.9-4.8,2c-2.3,0.1-4.6,0.1-6.9,0.2c-0.4,0-0.7-0.1-0.6-0.6c0-5.5,0-10.9,0-16.4c0-0.1,0-0.1,0-0.2
				C117,56.9,117.1,56.8,117.1,56.7z M120.5,71.2c2.7,0.6,5.7-0.3,6.9-2.1c1.4-2.1,1.4-5.6,0-7.5s-3.9-2.5-6.8-2
				C120.5,63.4,120.5,67.3,120.5,71.2z"/>
			<path fill="#00AF87" d="M156.2,65.3c0.6,1,1.2,1.9,1.6,2.8c0.8,1.9,1.6,3.9,2.4,5.9c-1.2,0-2.2,0-3.3,0c-0.2,0-0.4-0.3-0.5-0.5
				c-0.5-1.4-1-2.8-1.6-4.2c-0.8-2.2-1.7-2.8-4.2-2.4c0,0.3-0.1,0.6-0.1,0.9c0,1.8,0,3.6,0,5.5c0,0.6-0.2,0.8-0.8,0.8
				c-0.7,0-1.3,0-2,0c-0.4,0-0.6-0.1-0.6-0.6c0-5.5,0-11,0-16.5c0.1-0.1,0.1-0.2,0.2-0.2c2.9,0,5.7-0.4,8.6,0.3
				c2.1,0.5,3.1,1.7,3.2,3.7c0.1,2.1-0.8,3.5-2.8,4.3C156.3,65.3,156.2,65.3,156.2,65.3z M152.1,59.1L152.1,59.1
				c-0.3,0.1-0.6,0.1-0.8,0.1c-0.5,0-0.6,0.2-0.6,0.6c0,1.3,0,2.7,0,4c0,0.2,0.3,0.5,0.4,0.5c1.2-0.1,2.4-0.2,3.5-0.5
				c1-0.3,1.3-1.3,1.2-2.3c-0.1-0.9-0.5-1.6-1.4-1.9C153.6,59.3,152.8,59.3,152.1,59.1z"/>
			<path fill="#00AF87" d="M100.9,74c-1.2,0-2.2,0-3.4,0c0.2-0.5,0.3-0.8,0.4-1.2c2-5.1,4-10.2,5.9-15.2c0.2-0.6,0.5-0.8,1.1-0.8
				c0.9,0,1.8,0,2.7,0c0.5,0,0.7,0.1,0.9,0.6c2,5.2,4,10.5,6.1,15.7c0.1,0.3,0.2,0.6,0.3,0.9c-1.2,0-2.2,0-3.2,0
				c-0.2,0-0.5-0.3-0.6-0.5c-0.4-0.9-0.7-1.9-1-2.9c-0.2-0.5-0.4-0.7-0.9-0.7c-2,0-4,0-6,0c-0.6,0-0.8,0.2-1,0.7
				C101.7,71.8,101.3,72.9,100.9,74z M108.9,67.4c-0.9-2.5-1.8-4.9-2.6-7.3c-0.1,0-0.1,0-0.2,0c-0.9,2.4-1.8,4.8-2.7,7.3
				C105.2,67.4,107,67.4,108.9,67.4z"/>
			<path fill="#00AF87" d="M95.9,56.9c0,0.8,0,1.5,0,2.3c-0.3,0-0.6,0-0.9,0c-1.8,0-3.6,0-5.5,0c-0.5,0-0.7,0.2-0.7,0.7
				c0,1,0,2,0,3.1c0,0.6,0.2,0.8,0.8,0.8c1.7,0,3.5,0,5.2,0c0.6,0,0.8,0.2,0.8,0.8c0,1.8,0,1.8-1.8,1.8c-1.6,0-3.2,0-4.9,0
				c0,1.6,0,3.1,0,4.7c0,0.1,0.5,0.3,0.7,0.3c1.9,0,3.9,0,5.8,0c0.6,0,0.9,0.2,0.8,0.8c0,0.6,0,1.1,0,1.8c-3.6,0-7.2,0-10.8,0
				c0-5.7,0-11.4,0-17.1C88.9,56.9,92.4,56.9,95.9,56.9z"/>
			<path fill="#00AF87" d="M144.3,59.3c-0.5,0-0.9,0-1.3,0c-1.7,0-3.3,0-5,0c-0.6,0-0.8,0.2-0.8,0.8c0,1,0,2,0,3.1
				c0,0.7,0.2,0.8,0.8,0.8c1.7,0,3.4,0,5,0c0.7,0,0.9,0.2,0.9,0.9c0,1.7,0,1.7-1.7,1.7c-1.6,0-3.2,0-5,0c0,1.6,0,3.1,0,4.7
				c0,0.1,0.4,0.3,0.7,0.3c1.9,0,3.9,0,5.8,0c0.6,0,0.9,0.2,0.9,0.8c0,1.8,0,1.8-1.8,1.8c-2.9,0-5.9,0-8.9,0c0-5.7,0-11.4,0-17.2
				c3.4,0,6.9,0,10.4,0C144.3,57.6,144.3,58.4,144.3,59.3z"/>
			<path fill="#00AF87" d="M83.2,74.1c-1.4,0-2.8,0-4.2,0c-1.8,0-3.6,0-5.5,0c-0.4,0-0.7-0.1-0.7-0.6c0-5.5,0-10.9,0-16.4
				c0-0.1,0-0.1,0.1-0.2c1.1,0,2.2,0,3.4,0c0,4.8,0,9.6,0,14.5c1.7,0,3.3,0,4.9,0c2.4,0,2-0.4,2,2.1C83.3,73.6,83.2,73.8,83.2,74.1z
				"/>
			<path fill="#00AF87" d="M135.2,43.2c0,2.7,0,5.3,0,8c0,0.3-0.1,0.8-0.2,0.8c-0.6,0.1-1.1,0-1.7,0c-0.1,0-0.1-0.3-0.1-0.4
				c0-3.7,0-7.3,0-11c0-0.1,0.1-0.2,0.1-0.3c0.8,0,1.7,0,2.5,0c0.2,0,0.5,0.3,0.6,0.5c1.4,2.7,2.9,5.5,4.3,8.2
				c0,0.1,0.1,0.1,0.3,0.3c0-3.1,0-6,0-9c0.7,0,1.3,0,2,0c0,0.2,0.1,0.5,0.1,0.7c0,3.4,0,6.8,0,10.3c0,0.7-0.2,0.8-0.8,0.9
				c-1.5,0.2-2.4-0.3-3-1.8c-1.1-2.5-2.5-4.8-3.8-7.2C135.3,43.2,135.2,43.2,135.2,43.2z"/>
			<path fill="#00AF87" d="M98.5,42.5c-0.9-0.2-1.6-0.4-2.5-0.6c-2.3-0.4-4.4,1.1-4.9,3.4c-0.5,2.4,0.9,4.5,3.2,5.1
				c0.3,0.1,0.7,0.1,1,0.1c1.3,0,1.5-0.3,1.5-1.5c0-1.7,0-1.7-1.7-1.8c-0.1,0-0.3,0-0.4-0.1c0-0.5,0-1,0-1.5c1.4,0,2.8,0,4.3,0
				c0,0.2,0.1,0.3,0.1,0.5c0,1.6,0,3.3,0,4.9c0,0.3-0.2,0.7-0.5,0.8c-2,0.7-4.1,0.9-6.2,0.2c-2.2-0.8-3.6-2.6-3.7-4.9
				c-0.2-3.8,1.4-6.2,5-6.8c1.1-0.2,2.3-0.1,3.4,0.1C98.9,40.6,98.9,40.2,98.5,42.5z"/>
			<path fill="#00AF87" d="M102.1,40.4c1.9,0,3.7-0.1,5.5,0c1.6,0.1,2.4,1,2.6,2.2c0.2,1.7-0.3,2.6-1.8,3.4c0,0-0.1,0.1,0,0
				c0.5,1,0.9,1.9,1.4,2.9c0.4,1,0.8,2,1.2,3.1c-0.8,0-1.5,0-2.2,0c-0.2,0-0.4-0.3-0.5-0.6c-0.4-1-0.7-2.1-1.2-3.1
				c-0.2-0.4-0.6-0.9-1-1.1c-1.2-0.6-1.7-0.2-1.7,1.1c0,1,0,2,0,3.1c0,0.5-0.1,0.7-0.6,0.7s-1,0-1.6,0
				C102.1,48.2,102.1,44.3,102.1,40.4z M104.4,43.7L104.4,43.7c0,0.4,0,0.8,0,1.2c0,0.2,0.3,0.5,0.4,0.5c0.7,0,1.3,0,1.9-0.2
				c1-0.3,1.4-1.1,1.1-2.1c-0.2-0.9-1.4-1.4-3-1.2c-1,0.1-0.3,1-0.5,1.4C104.3,43.5,104.4,43.6,104.4,43.7z"/>
			<path fill="#00AF87" d="M115.4,46.9c0,1.2,0,2.2,0,3.4c1.7,0,3.3,0,5,0c0,0.7,0,1.2,0,1.8c-2.5,0-4.9,0-7.3,0c0-3.9,0-7.8,0-11.7
				c2.4,0,4.7,0,7.1,0c0,0.5,0,1,0,1.6c-1.3,0-2.5,0-3.7,0c-1.1,0-1.1,0-1.1,1.1c0,0.6,0,1.3,0,2c1.6,0,3,0,4.5,0
				c0.1,0.1,0.1,0.2,0.2,0.2c0.1,1.6,0.1,1.6-1.4,1.6C117.5,46.9,116.5,46.9,115.4,46.9z"/>
			<path fill="#00AF87" d="M125.4,45.1c1.6,0,3,0,4.6,0c0,0.6,0,1.1,0,1.8c-1.2,0-2.4,0-3.6,0c-0.7,0-1.1,0.2-1,1
				c0.1,0.6,0,1.2,0,1.8c0,0.5,0.2,0.7,0.7,0.7c1.4,0,2.9,0,4.2,0c0.1,0.2,0.1,0.2,0.1,0.3c0.2,1.5,0.2,1.6-1.4,1.6
				c-1.9,0-3.7,0-5.6,0c-0.1,0-0.2,0-0.3-0.1c0-3.9,0-7.8,0-11.7c2.4,0,4.7,0,7,0c0,0.1,0.1,0.1,0.1,0.2c0.1,1.5,0.1,1.5-1.4,1.5
				c-0.9,0-1.8,0-2.7,0c-0.5,0-0.8,0.1-0.7,0.7C125.4,43.5,125.4,44.2,125.4,45.1z"/>
		</g>
		<g>
			<g>
				<path fill="#FFFFFF" d="M93.3,130.5c-10,0-18.1-8.1-18.1-18.1s8.1-18.1,18.1-18.1s18.1,8.1,18.1,18.1S103.3,130.5,93.3,130.5"/>
				<path fill="#FFFFFF" d="M138.2,130.5c-10.1,0-18.1-8.1-18.1-18.1s8.1-18.1,18.1-18.1s18.1,8.1,18.1,18.1
					S148.1,130.5,138.2,130.5"/>
				<path fill="#F8C40F" d="M93.2,90c6.4-2.8,14.4-4.3,22.3-4.3c8.1,0,15.2,1.5,21.8,4.3c-12,0.4-21.8,10.2-21.8,22.3
					C115.6,100.1,105.6,90.1,93.2,90"/>
				<path fill="#EF6945" d="M93.1,108.9c-2,0-3.7,1.7-3.7,3.7s1.7,3.7,3.7,3.7s3.7-1.7,3.7-3.7C96.7,110.5,95,108.9,93.1,108.9"/>
				<path fill="#00AF87" d="M138.2,108.9c-2,0-3.7,1.7-3.7,3.7s1.7,3.7,3.7,3.7s3.7-1.7,3.7-3.7
					C141.8,110.5,140.2,108.9,138.2,108.9"/>
				<g>
					<path fill="#000A12" d="M93.1,101.5c-6.1,0-10.9,4.9-10.9,10.9s4.9,10.9,10.9,10.9c6.1,0,10.9-4.9,10.9-10.9
						C103.9,106.4,99.1,101.5,93.1,101.5 M93.1,120c-4.1,0-7.5-3.4-7.5-7.5s3.4-7.5,7.5-7.5s7.5,3.4,7.5,7.5
						C100.7,116.6,97.2,120,93.1,120 M160.8,90.3h-15c-7.7-5.2-18.1-8.4-30.1-8.4S92.6,85.1,85,90.3H70.7c2.3,2.7,4.1,6.4,4.5,8.9
						c-2.6,3.7-4.3,8.2-4.3,13.2c0,12.4,10.1,22.4,22.4,22.4c7,0,13.3-3.2,17.5-8.3c1.7,2,4.5,5.9,5,7c0,0,3.2-4.8,5-7
						c4.1,5.1,10.4,8.3,17.4,8.3c12.4,0,22.4-10.1,22.4-22.4c0-4.9-1.6-9.5-4.3-13.2C156.8,96.8,158.5,93.1,160.8,90.3 M93.3,130.5
						c-10,0-18.1-8.1-18.1-18.1s8.1-18.1,18.1-18.1s18.1,8.1,18.1,18.1S103.3,130.5,93.3,130.5 M93.4,90c6.4-2.8,14.4-4.3,22.3-4.3
						c8.1,0,15.3,1.5,21.8,4.3c-12,0.4-21.8,10.2-21.8,22.3C115.7,100.1,105.8,90.1,93.4,90 M138.2,130.5
						c-10.1,0-18.1-8.1-18.1-18.1s8.1-18.1,18.1-18.1s18.1,8.1,18.1,18.1S148.1,130.5,138.2,130.5 M138.2,101.5
						c-6.1,0-10.9,4.9-10.9,10.9s4.9,10.9,10.9,10.9s10.9-4.9,10.9-10.9S144.2,101.5,138.2,101.5 M138.2,119.9
						c-4.1,0-7.5-3.4-7.5-7.5s3.4-7.5,7.5-7.5s7.5,3.4,7.5,7.5S142.4,119.9,138.2,119.9"/>
					<path fill="#000A12" d="M165.9,94h-0.7v-3h1.1c0.6,0,1.2,0.1,1.2,0.9c0,0.4-0.2,0.7-0.6,0.8l0.7,1.4h-0.8l-0.6-1.3H166
						L165.9,94L165.9,94z M165.9,92.3c0.4,0,0.5,0,0.6,0c0.2-0.1,0.2-0.2,0.2-0.4c0-0.2-0.1-0.3-0.2-0.4c-0.1,0-0.2,0-0.6,0V92.3
						L165.9,92.3z"/>
					<path fill="#000A12" d="M166.4,89.8c-1.5,0-2.7,1.3-2.7,2.7c0,1.4,1.3,2.7,2.7,2.7c1.5,0,2.7-1.2,2.7-2.7
						C169,91.1,167.8,89.8,166.4,89.8 M166.4,94.8c-1.3,0-2.2-1-2.2-2.2c0-1.3,1-2.2,2.2-2.2c1.3,0,2.2,1,2.2,2.2
						C168.6,93.8,167.5,94.8,166.4,94.8"/>
				</g>
			</g>
			<g>
				<path fill="#000A12" d="M54.3,155.6v-2.4h-4v-3.7l-3,1v2.7H45v2.4h2.3v7.9c0,3.5,1.4,5.3,4.2,5.3c1,0,1.9-0.2,2.6-0.4h0.1
					L54,166l-0.2,0.1c-0.4,0.2-1,0.2-1.7,0.2s-1.2-0.2-1.5-0.6c-0.3-0.5-0.5-1.2-0.5-2.2v-7.7L54.3,155.6L54.3,155.6z"/>
				<path fill="#000A12" d="M65,152.9c-0.3-0.1-0.6-0.1-0.8-0.1c-1,0-1.8,0.3-2.6,1c-0.7,0.5-1.2,1.2-1.6,2l-0.2-2.6H57v0.2
					c0.1,1.3,0.2,2.8,0.2,4.8v10.4h3.1v-8.1c0-1.5,0.4-2.6,1.1-3.4c0.7-0.8,1.6-1.2,2.6-1.2c0.4,0,0.7,0,1,0.1h0.2L65,152.9
					L65,152.9z"/>
				<rect x="67.8" y="153.2" fill="#000A12" width="3.1" height="15.2"/>
				<path fill="#000A12" d="M69.4,150.7c0.6,0,1.1-0.2,1.4-0.6c0.4-0.4,0.6-0.9,0.6-1.4s-0.2-1-0.6-1.4s-0.9-0.6-1.4-0.6
					c-0.6,0-1.1,0.2-1.4,0.6c-0.4,0.4-0.6,0.9-0.6,1.4s0.2,1,0.6,1.4C68.4,150.4,68.8,150.7,69.4,150.7"/>
				<path fill="#000A12" d="M86.2,154.9c-1.3-1.5-2.8-2.2-4.6-2.2c-2.2,0-4,0.9-5.2,2.6l-0.2-2.2h-2.9v0.2c0.1,1.3,0.1,2.9,0.1,4.9
					v16.4h3.1v-7.8c0.5,0.6,1,1,1.7,1.4c0.9,0.4,1.8,0.6,2.7,0.6c2,0,3.7-0.8,4.9-2.2c1.4-1.5,2-3.5,2-6.1
					C88.1,158.3,87.5,156.4,86.2,154.9 M78.5,156.2c0.7-0.5,1.4-0.7,2.2-0.7c1.3,0,2.2,0.5,3,1.5s1.2,2.2,1.2,3.7
					c0,1.8-0.4,3-1.2,4.1c-0.8,1-1.8,1.5-3.1,1.5c-1.1,0-2-0.4-2.7-1.2c-0.8-0.8-1.2-1.8-1.2-2.9v-2.5c0-0.5,0.2-1,0.4-1.8
					C77.5,157.3,77.9,156.7,78.5,156.2"/>
			</g>
			<g>
				<path fill="#00AF87" d="M184.4,156.1h-0.7v-3h1.1c0.6,0,1.2,0.1,1.2,0.9c0,0.4-0.2,0.6-0.6,0.8l0.7,1.4h-0.8l-0.6-1.3h-0.2
					L184.4,156.1L184.4,156.1z M184.4,154.4c0.4,0,0.5,0,0.6,0c0.2-0.1,0.2-0.2,0.2-0.4s-0.1-0.3-0.2-0.4c-0.1,0-0.2,0-0.6,0V154.4
					L184.4,154.4z"/>
				<path fill="#00AF87" d="M184.9,152c-1.5,0-2.7,1.2-2.7,2.7s1.3,2.7,2.7,2.7c1.5,0,2.7-1.3,2.7-2.7
					C187.6,153.2,186.4,152,184.9,152 M184.9,156.9c-1.3,0-2.2-1-2.2-2.2c0-1.3,1-2.2,2.2-2.2c1.3,0,2.2,1,2.2,2.2
					C187.1,155.9,186.2,156.9,184.9,156.9"/>
				<path fill="#00AF87" d="M102.2,168.3c-0.2-0.9-0.2-2.1-0.2-3.6v-5.5c0-2-0.6-3.7-1.6-4.8s-2.6-1.7-4.5-1.7c-2,0-3.7,0.5-5.3,1.4
					l-0.1,0.1l0.7,2.1l0.2-0.1c1.2-0.8,2.5-1.1,4.1-1.1c1.1,0,2,0.3,2.5,0.9c0.6,0.6,0.9,1.4,0.9,2.4v0.2c-3,0-5.3,0.5-6.9,1.5
					c-1.7,1-2.4,2.4-2.4,4.3c0,1.3,0.5,2.2,1.4,3.1c0.9,0.9,2,1.4,3.5,1.4c2,0,3.5-0.7,4.7-2.1l0.3,1.8h2.9L102.2,168.3z
					 M97.8,165.4c-0.7,0.6-1.7,1-2.6,1c-0.7,0-1.4-0.2-1.8-0.6c-0.5-0.4-0.7-1-0.7-1.8c0-1,0.5-1.8,1.4-2.2c1-0.6,2.5-0.9,4.9-0.9
					v2.3C98.8,164,98.4,164.8,97.8,165.4"/>
				<path fill="#00AF87" d="M118.1,168.6v-0.2c-0.1-1-0.2-2.2-0.2-3.9v-18.3h-3.2v8.5c-0.4-0.5-1-1-1.6-1.3
					c-0.8-0.5-1.8-0.6-2.8-0.6c-2,0-3.6,0.8-4.9,2.3c-1.4,1.6-2,3.5-2,6c0,2.2,0.6,4.1,1.9,5.6s2.8,2.2,4.7,2.2
					c1.2,0,2.2-0.2,3.1-0.8c0.7-0.5,1.4-1,1.8-1.8l0.2,2.2L118.1,168.6L118.1,168.6z M114.8,159.5v2.4c0,1.4-0.4,2.3-1.2,3.1
					c-0.8,0.8-1.7,1.2-2.6,1.2c-1.4,0-2.3-0.5-3-1.5s-1.1-2.2-1.1-3.8c0-1.7,0.4-3,1.2-4s1.8-1.5,3-1.5c1,0,2,0.4,2.6,1.1
					C114.4,157.3,114.8,158.3,114.8,159.5"/>
				<path fill="#00AF87" d="M131,153.2c0,0-3.9,8-4.2,8.9c-0.4-1.1-4.2-8.9-4.2-8.9h-3.4l7.7,15.2l7.5-15.2H131z"/>
				<rect x="135.9" y="153.2" fill="#00AF87" width="3.1" height="15.2"/>
				<path fill="#00AF87" d="M137.4,150.7c0.6,0,1.1-0.2,1.4-0.6c0.4-0.4,0.6-0.9,0.6-1.4s-0.2-1-0.6-1.4s-0.9-0.6-1.4-0.6
					c-0.6,0-1.1,0.2-1.4,0.6c-0.4,0.4-0.6,0.9-0.6,1.4s0.2,1,0.6,1.4C136.4,150.4,136.9,150.7,137.4,150.7"/>
				<path fill="#00AF87" d="M151.4,161.4c-0.6-0.7-1.8-1.4-3.2-1.9c-1.2-0.4-2-0.8-2.3-1.2c-0.4-0.3-0.6-0.8-0.6-1.3
					c0-0.6,0.2-1,0.6-1.4c0.4-0.3,1-0.6,1.8-0.6c1.1,0,2.1,0.3,3.2,0.9l0.2,0.1l0.8-2.3l-0.1-0.1c-1.1-0.6-2.4-1-3.9-1
					c-1.7,0-3,0.5-4,1.4s-1.5,2-1.5,3.3c0,2,1.4,3.4,4.2,4.4c1,0.3,1.8,0.7,2.2,1.1s0.6,0.9,0.6,1.5s-0.2,1.1-0.7,1.5
					s-1.2,0.6-2.1,0.6c-1.3,0-2.5-0.4-3.7-1.1l-0.2-0.1l-0.8,2.4l0.1,0.1c1.4,0.7,2.8,1.1,4.5,1.1c1.8,0,3.3-0.5,4.3-1.3
					c1.1-0.9,1.7-2,1.7-3.4C152.4,163,152,162.1,151.4,161.4"/>
				<path fill="#00AF87" d="M166.8,155c-1.4-1.5-3.1-2.2-5.3-2.2s-4,0.8-5.4,2.2c-1.4,1.5-2.1,3.4-2.1,5.9c0,2.3,0.7,4.2,2,5.7
					c1.4,1.5,3.1,2.2,5.3,2.2c1.4,0,2.6-0.3,3.8-1c1.2-0.6,2.1-1.7,2.7-2.8c0.6-1.3,1-2.6,1-4.3C168.8,158.3,168.2,156.5,166.8,155
					 M161.3,166.4c-1.3,0-2.2-0.6-3-1.6s-1.3-2.4-1.3-4c0-1.7,0.4-3,1.2-4.1c0.8-1,1.9-1.6,3.2-1.6c1.4,0,2.3,0.6,3.1,1.6
					c0.8,1.1,1.2,2.4,1.2,3.9c0,1.7-0.4,3-1.3,4.1C163.6,165.8,162.6,166.4,161.3,166.4"/>
				<path fill="#00AF87" d="M179.3,152.9c-0.3-0.1-0.6-0.1-0.8-0.1c-1,0-1.8,0.3-2.6,1c-0.7,0.5-1.2,1.2-1.6,2l-0.2-2.6h-2.8v0.2
					c0.1,1.3,0.2,2.8,0.2,4.8v10.4h3.1v-8.1c0-1.5,0.4-2.6,1.1-3.4c0.7-0.8,1.6-1.2,2.6-1.2c0.4,0,0.7,0,1,0.1h0.2L179.3,152.9
					L179.3,152.9z"/>
			</g>
		</g>
	</g>
</g>
</svg>
