<?xml version="1.0" encoding="utf-8"?>
<!-- Generator: Adobe Illustrator 22.1.0, SVG Export Plug-In . SVG Version: 6.00 Build 0)  -->
<svg version="1.1" id="Layer_1" xmlns="http://www.w3.org/2000/svg" xmlns:xlink="http://www.w3.org/1999/xlink" x="0px" y="0px"
	 viewBox="0 0 225.8 227.7" enable-background="new 0 0 225.8 227.7" xml:space="preserve">
<g>
	<g>
		<path fill="#000A12" d="M57.1,66.2c-0.6,0.3-2,0.7-3.7,0.7c-4.5,0-7.2-2.8-7.2-7.1c0-4.7,3.2-7.5,7.6-7.5c1.7,0,2.9,0.4,3.4,0.6
			L56.6,55c-0.7-0.3-1.6-0.5-2.8-0.5c-2.9,0-5,1.8-5,5.2c0,3.1,1.8,5.1,4.9,5.1c1,0,2.1-0.2,2.8-0.5L57.1,66.2z"/>
		<polygon fill="#000A12" points="67.3,60.4 61.9,60.4 61.9,64.5 67.9,64.5 67.9,66.6 59.3,66.6 59.3,52.5 67.6,52.5 67.6,54.6 
			61.9,54.6 61.9,58.3 67.3,58.3 		"/>
		<path fill="#000A12" d="M70.2,52.7c1-0.2,2.4-0.3,3.9-0.3c2,0,3.4,0.3,4.4,1.1c0.8,0.7,1.2,1.6,1.2,2.8c0,1.8-1.2,3.1-2.6,3.5v0.1
			c1,0.4,1.6,1.4,2,2.7c0.4,1.8,0.8,3.4,1.1,3.9h-2.7c-0.2-0.4-0.5-1.6-0.9-3.3c-0.4-1.8-1.1-2.4-2.5-2.5h-1.3v5.9h-2.6V52.7z
			 M72.7,58.9h1.5c1.7,0,2.8-0.9,2.8-2.3c0-1.6-1.1-2.3-2.8-2.3c-0.8,0-1.3,0.1-1.6,0.1C72.7,54.5,72.7,58.9,72.7,58.9z"/>
		<polygon fill="#000A12" points="84.9,54.6 80.9,54.6 80.9,52.5 91.6,52.5 91.6,54.6 87.5,54.6 87.5,66.6 84.9,66.6 		"/>
		<rect x="93.2" y="52.5" fill="#000A12" width="2.6" height="14.2"/>
		<polygon fill="#000A12" points="98.8,52.5 106.9,52.5 106.9,54.6 101.4,54.6 101.4,58.5 106.6,58.5 106.6,60.6 101.4,60.6 
			101.4,66.6 98.8,66.6 		"/>
		<rect x="109.5" y="52.5" fill="#000A12" width="2.6" height="14.2"/>
		<path fill="#000A12" d="M125.1,66.2c-0.6,0.3-2,0.7-3.7,0.7c-4.5,0-7.2-2.8-7.2-7.1c0-4.7,3.2-7.5,7.6-7.5c1.7,0,2.9,0.4,3.4,0.6
			l-0.6,2.1c-0.7-0.3-1.6-0.5-2.8-0.5c-2.9,0-5,1.8-5,5.2c0,3.1,1.8,5.1,4.9,5.1c1.1,0,2.1-0.2,2.8-0.5L125.1,66.2z"/>
		<path fill="#000A12" d="M130.3,62.6l-1.2,4h-2.7l4.5-14.2h3.3l4.6,14.2H136l-1.3-4H130.3z M134.4,60.7l-1.1-3.5
			c-0.3-0.9-0.5-1.8-0.7-2.6l0,0c-0.2,0.8-0.4,1.8-0.7,2.6l-1.1,3.5H134.4z"/>
		<polygon fill="#000A12" points="141.9,54.6 137.8,54.6 137.8,52.5 148.5,52.5 148.5,54.6 144.4,54.6 144.4,66.6 141.9,66.6 		"/>
		<polygon fill="#000A12" points="158.1,60.4 152.8,60.4 152.8,64.5 158.7,64.5 158.7,66.6 150.2,66.6 150.2,52.5 158.4,52.5 
			158.4,54.6 152.8,54.6 152.8,58.3 158.1,58.3 		"/>
		<path fill="#000A12" d="M174.6,60.4c0,3.5-2.4,6.4-5.9,6.4c-2.6,0-4.2-1.8-4.2-4.2c0-3.5,2.4-6.5,5.9-6.5
			C173.2,56.2,174.6,58.2,174.6,60.4 M167,62.6c0,1.4,0.8,2.4,2,2.4c1.8,0,3-2.5,3-4.6c0-1-0.5-2.4-2-2.4
			C168.2,58.1,167,60.7,167,62.6"/>
		<path fill="#000A12" d="M176,66.6l1.6-8.3h-1.3l0.4-1.9h1.3l0.1-0.5c0.2-1.3,0.7-2.6,1.7-3.4c0.8-0.7,1.7-0.9,2.7-0.9
			c0.7,0,1.2,0.1,1.5,0.3l-0.5,1.9c-0.3-0.1-0.6-0.2-1-0.2c-1.2,0-1.8,1.1-2,2.4l-0.1,0.5h2.1l-0.4,1.9H180l-1.6,8.3
			C178.4,66.6,176,66.6,176,66.6z"/>
		<polygon fill="#000A12" points="44,84.2 36.3,84.2 36.3,90.2 45,90.2 45,93.3 32.5,93.3 32.5,72.7 44.5,72.7 44.5,75.8 36.3,75.8 
			36.3,81.1 44,81.1 		"/>
		<path fill="#000A12" d="M59.3,93.3L57,89.2c-0.9-1.6-1.5-2.7-2-3.9h-0.1c-0.5,1.2-1,2.3-1.9,3.9l-2,4.1h-4.3l6.1-10.4l-5.9-10.2
			h4.3l2.2,4.2c0.7,1.3,1.2,2.3,1.7,3.4h0.1c0.5-1.3,1-2.2,1.6-3.4l2.2-4.2h4.3l-6,10l6.3,10.5L59.3,93.3L59.3,93.3z"/>
		<path fill="#000A12" d="M80.1,92.7c-0.9,0.5-2.8,0.9-5.3,0.9c-6.5,0-10.5-4.1-10.5-10.4c0-6.8,4.7-10.9,11-10.9
			c2.5,0,4.2,0.5,5,0.9l-0.8,3c-1-0.4-2.3-0.8-4-0.8c-4.2,0-7.2,2.6-7.2,7.6c0,4.5,2.7,7.4,7.2,7.4c1.5,0,3.1-0.3,4.1-0.8L80.1,92.7
			z"/>
		<polygon fill="#000A12" points="94.8,84.2 87,84.2 87,90.2 95.7,90.2 95.7,93.3 83.3,93.3 83.3,72.7 95.2,72.7 95.2,75.8 87,75.8 
			87,81.1 94.8,81.1 		"/>
		<polygon fill="#000A12" points="99,72.7 102.7,72.7 102.7,90.2 111.2,90.2 111.2,93.3 99,93.3 		"/>
		<polygon fill="#000A12" points="114,72.7 117.8,72.7 117.8,90.2 126.2,90.2 126.2,93.3 114,93.3 		"/>
		<polygon fill="#000A12" points="140.5,84.2 132.8,84.2 132.8,90.2 141.5,90.2 141.5,93.3 129,93.3 129,72.7 141,72.7 141,75.8 
			132.8,75.8 132.8,81.1 140.5,81.1 		"/>
		<path fill="#000A12" d="M144.8,93.3V72.7h4.3l5.3,8.8c1.4,2.3,2.6,4.7,3.5,6.9h0.1c-0.2-2.7-0.3-5.4-0.3-8.5v-7.2h3.5v20.6h-3.9
			l-5.4-9.1c-1.3-2.2-2.7-4.8-3.7-7.1h-0.1c0.2,2.7,0.2,5.4,0.2,8.8v7.3C148.2,93.3,144.8,93.3,144.8,93.3z"/>
		<path fill="#000A12" d="M180.1,92.7c-0.9,0.5-2.8,0.9-5.3,0.9c-6.5,0-10.5-4.1-10.5-10.4c0-6.8,4.7-10.9,11-10.9
			c2.5,0,4.2,0.5,5,0.9l-0.8,3c-1-0.4-2.3-0.8-4-0.8c-4.2,0-7.2,2.6-7.2,7.6c0,4.5,2.7,7.4,7.2,7.4c1.5,0,3.1-0.3,4.1-0.8
			L180.1,92.7z"/>
		<polygon fill="#000A12" points="194.8,84.2 187.1,84.2 187.1,90.2 195.7,90.2 195.7,93.3 183.3,93.3 183.3,72.7 195.3,72.7 
			195.3,75.8 187.1,75.8 187.1,81.1 194.8,81.1 		"/>
	</g>
	<g>
		<path fill="#FFFFFF" d="M84.8,171.3c-12.7,0-23.1-10.3-23.1-23.1c0-12.7,10.3-23.1,23.1-23.1s23.1,10.3,23.1,23.1
			S97.6,171.3,84.8,171.3"/>
		<path fill="#FFFFFF" d="M142.2,171.3c-12.8,0-23.1-10.3-23.1-23.1c0-12.7,10.3-23.1,23.1-23.1c12.7,0,23.1,10.3,23.1,23.1
			S154.9,171.3,142.2,171.3"/>
		<path fill="#F8C40F" d="M84.7,119.5c8.2-3.6,18.4-5.5,28.6-5.5c10.3,0,19.5,1.9,27.8,5.5c-15.4,0.5-27.8,13.1-27.8,28.6
			C113.3,132.4,100.5,119.6,84.7,119.5"/>
		<path fill="#EF6945" d="M84.5,143.6c-2.6,0-4.7,2.1-4.7,4.7c0,2.6,2.1,4.7,4.7,4.7s4.7-2.1,4.7-4.7
			C89.1,145.7,87,143.6,84.5,143.6"/>
		<path fill="#00AF87" d="M142.1,143.6c-2.6,0-4.7,2.1-4.7,4.7c0,2.6,2.1,4.7,4.7,4.7c2.6,0,4.7-2.1,4.7-4.7
			S144.7,143.6,142.1,143.6"/>
		<g>
			<path fill="#000A12" d="M84.5,134.2c-7.7,0-13.9,6.2-13.9,13.9S76.8,162,84.5,162s13.9-6.2,13.9-13.9
				C98.4,140.5,92.2,134.2,84.5,134.2 M84.5,157.8c-5.3,0-9.6-4.3-9.6-9.6s4.3-9.6,9.6-9.6c5.3,0,9.6,4.3,9.6,9.6
				C94.2,153.5,89.8,157.8,84.5,157.8 M171.1,119.9h-19.2c-9.8-6.6-23.1-10.7-38.4-10.7s-29.6,4.1-39.3,10.7H55.9
				c3,3.5,5.2,8.2,5.7,11.4c-3.4,4.7-5.5,10.5-5.5,16.8c0,15.8,12.8,28.7,28.7,28.7c9,0,17-4.1,22.3-10.6c2.1,2.5,5.7,7.5,6.4,9
				c0,0,4.1-6.1,6.4-9c5.3,6.5,13.3,10.6,22.2,10.6c15.8,0,28.7-12.8,28.7-28.7c0-6.3-2-12.1-5.5-16.8
				C165.9,128.2,168.1,123.4,171.1,119.9 M84.8,171.3c-12.7,0-23.1-10.3-23.1-23.1c0-12.7,10.3-23.1,23.1-23.1s23.1,10.3,23.1,23.1
				S97.6,171.3,84.8,171.3 M84.9,119.5c8.2-3.6,18.4-5.5,28.6-5.5c10.3,0,19.6,1.9,27.8,5.5c-15.4,0.5-27.8,13.1-27.8,28.6
				C113.5,132.4,100.7,119.6,84.9,119.5 M142.2,171.3c-12.8,0-23.1-10.3-23.1-23.1c0-12.7,10.3-23.1,23.1-23.1
				c12.7,0,23.1,10.3,23.1,23.1S154.9,171.3,142.2,171.3 M142.2,134.2c-7.7,0-13.9,6.2-13.9,13.9s6.2,13.9,13.9,13.9
				s13.9-6.2,13.9-13.9C156.1,140.4,149.9,134.2,142.2,134.2 M142.2,157.7c-5.3,0-9.6-4.3-9.6-9.6s4.3-9.6,9.6-9.6s9.6,4.3,9.6,9.6
				S147.5,157.7,142.2,157.7"/>
			<path fill="#000A12" d="M177.6,124.6h-0.9v-3.8h1.4c0.7,0,1.5,0.1,1.5,1.1c0,0.5-0.2,0.9-0.8,1l0.9,1.7h-1l-0.8-1.6h-0.3
				L177.6,124.6L177.6,124.6z M177.6,122.4c0.5,0,0.6,0,0.7,0c0.3-0.1,0.3-0.3,0.3-0.5c0-0.3-0.1-0.4-0.3-0.5c-0.1,0-0.3,0-0.8,0v1
				H177.6z"/>
			<path fill="#000A12" d="M178.2,119.3c-1.9,0-3.5,1.6-3.5,3.5s1.6,3.5,3.5,3.5s3.5-1.5,3.5-3.5
				C181.6,120.9,180.1,119.3,178.2,119.3 M178.2,125.6c-1.6,0-2.8-1.3-2.8-2.8c0-1.6,1.3-2.8,2.8-2.8c1.6,0,2.8,1.3,2.8,2.8
				C181,124.4,179.7,125.6,178.2,125.6"/>
		</g>
	</g>
	<g>
		<path fill="#000A12" d="M35,203.4v-3.1h-5.1v-4.7l-3.9,1.2v3.5h-3v3.1h3v10.1c0,4.5,1.8,6.8,5.4,6.8c1.3,0,2.4-0.2,3.4-0.5h0.1
			l-0.2-3.1l-0.2,0.1c-0.5,0.2-1.2,0.2-2.1,0.2c-0.9,0-1.5-0.3-1.9-0.8c-0.4-0.6-0.6-1.5-0.6-2.8v-9.8L35,203.4L35,203.4z"/>
		<path fill="#000A12" d="M48.6,199.9c-0.4-0.1-0.8-0.1-1-0.1c-1.2,0-2.3,0.4-3.4,1.2c-0.9,0.6-1.5,1.5-2,2.6l-0.2-3.3h-3.6v0.2
			c0.1,1.6,0.2,3.6,0.2,6.1v13.3h4v-10.3c0-1.9,0.5-3.3,1.4-4.4c0.9-1,2-1.5,3.3-1.5c0.5,0,0.9,0,1.2,0.1h0.2V200L48.6,199.9z"/>
		<rect x="52.2" y="200.3" fill="#000A12" width="4" height="19.5"/>
		<path fill="#000A12" d="M54.2,197.1c0.8,0,1.4-0.2,1.8-0.7c0.5-0.5,0.7-1.1,0.7-1.8s-0.2-1.3-0.7-1.8s-1.1-0.7-1.8-0.7
			c-0.7,0-1.4,0.2-1.8,0.7c-0.5,0.5-0.7,1.1-0.7,1.8s0.2,1.3,0.7,1.8C52.9,196.8,53.5,197.1,54.2,197.1"/>
		<path fill="#000A12" d="M75.8,202.5c-1.6-1.9-3.6-2.8-5.9-2.8c-2.9,0-5.1,1.1-6.6,3.3l-0.2-2.9h-3.7v0.3c0.1,1.6,0.1,3.7,0.1,6.3
			v21h4v-10c0.6,0.7,1.3,1.3,2.1,1.8c1.1,0.5,2.3,0.8,3.5,0.8c2.5,0,4.7-1,6.3-2.9c1.7-1.9,2.5-4.5,2.5-7.7
			C78.2,206.8,77.4,204.4,75.8,202.5 M65.9,204.1c0.9-0.6,1.8-0.9,2.8-0.9c1.6,0,2.9,0.6,3.8,1.9c1,1.3,1.5,2.9,1.5,4.8
			c0,2.2-0.5,3.9-1.5,5.2s-2.3,1.9-4,1.9c-1.4,0-2.6-0.5-3.5-1.5c-1-1-1.5-2.2-1.5-3.7v-3.2c0-0.6,0.2-1.3,0.5-2.2
			C64.5,205.5,65.1,204.7,65.9,204.1"/>
	</g>
	<g>
		<path fill="#00AF87" d="M201.3,204h-0.9v-3.8h1.4c0.7,0,1.5,0.1,1.5,1.1c0,0.5-0.2,0.8-0.8,1l0.9,1.7h-1l-0.8-1.6h-0.3L201.3,204
			L201.3,204z M201.3,201.8c0.5,0,0.6,0,0.7,0c0.3-0.1,0.3-0.3,0.3-0.5c0-0.3-0.1-0.4-0.3-0.5c-0.1,0-0.3,0-0.8,0L201.3,201.8
			L201.3,201.8z"/>
		<path fill="#00AF87" d="M201.9,198.7c-1.9,0-3.5,1.5-3.5,3.5c0,1.9,1.6,3.5,3.5,3.5s3.5-1.6,3.5-3.5
			C205.4,200.3,203.8,198.7,201.9,198.7 M201.9,205c-1.6,0-2.8-1.3-2.8-2.8c0-1.6,1.3-2.8,2.8-2.8c1.6,0,2.8,1.3,2.8,2.8
			C204.7,203.7,203.5,205,201.9,205"/>
		<path fill="#00AF87" d="M96.1,219.6c-0.2-1.1-0.3-2.7-0.3-4.6v-7c0-2.6-0.7-4.7-2-6.1c-1.3-1.4-3.3-2.1-5.8-2.1
			c-2.6,0-4.8,0.6-6.7,1.8l-0.1,0.1l0.9,2.7l0.2-0.1c1.5-1,3.2-1.4,5.2-1.4c1.4,0,2.5,0.4,3.2,1.1c0.7,0.7,1.1,1.8,1.1,3.1v0.2
			c-3.8,0-6.8,0.6-8.8,1.9c-2.1,1.3-3.1,3.1-3.1,5.5c0,1.6,0.6,2.9,1.7,4s2.6,1.7,4.5,1.7c2.5,0,4.5-0.9,6-2.7l0.4,2.2h3.7
			L96.1,219.6z M90.5,215.9c-0.9,0.8-2.1,1.3-3.4,1.3c-0.9,0-1.7-0.3-2.3-0.8c-0.6-0.5-0.9-1.3-0.9-2.3c0-1.2,0.6-2.2,1.7-2.9
			c1.2-0.7,3.2-1.1,6.2-1.1v3C91.9,214.1,91.4,215.1,90.5,215.9"/>
		<path fill="#00AF87" d="M116.5,219.9v-0.3c-0.1-1.2-0.2-2.9-0.2-5v-23.5h-4v11c-0.5-0.6-1.2-1.2-2-1.6c-1-0.6-2.3-0.8-3.6-0.8
			c-2.5,0-4.6,1-6.2,3c-1.7,2-2.5,4.5-2.5,7.6c0,2.9,0.8,5.3,2.4,7.1c1.6,1.9,3.6,2.8,6,2.8c1.5,0,2.8-0.3,4-1
			c0.9-0.6,1.7-1.3,2.3-2.2l0.2,2.8L116.5,219.9L116.5,219.9z M112.3,208.3v3.1c0,1.7-0.5,3-1.5,4s-2.1,1.5-3.4,1.5
			c-1.7,0-3-0.6-3.9-1.9c-0.9-1.3-1.4-2.9-1.4-4.9c0-2.1,0.5-3.8,1.5-5.1s2.3-1.9,3.9-1.9c1.3,0,2.5,0.5,3.4,1.4
			C111.8,205.5,112.3,206.8,112.3,208.3"/>
		<path fill="#00AF87" d="M133,200.3c0,0-5,10.2-5.4,11.4c-0.5-1.4-5.4-11.4-5.4-11.4h-4.4l9.8,19.5l9.6-19.5H133z"/>
		<rect x="139.2" y="200.3" fill="#00AF87" width="4" height="19.5"/>
		<path fill="#00AF87" d="M141.2,197.1c0.8,0,1.4-0.2,1.8-0.7c0.5-0.5,0.7-1.1,0.7-1.8s-0.2-1.3-0.7-1.8s-1.1-0.7-1.8-0.7
			s-1.4,0.2-1.8,0.7c-0.5,0.5-0.7,1.1-0.7,1.8s0.2,1.3,0.7,1.8C139.9,196.8,140.5,197.1,141.2,197.1"/>
		<path fill="#00AF87" d="M159.1,210.7c-0.8-0.9-2.2-1.7-4.1-2.4c-1.5-0.5-2.5-1-3-1.5c-0.5-0.4-0.7-1-0.7-1.6
			c0-0.7,0.3-1.3,0.8-1.7s1.3-0.7,2.2-0.7c1.4,0,2.7,0.4,4.1,1.1l0.2,0.1l1-3l-0.1-0.1c-1.4-0.8-3.1-1.2-5-1.2
			c-2.1,0-3.8,0.6-5.1,1.7c-1.3,1.1-1.9,2.5-1.9,4.2c0,2.5,1.8,4.4,5.4,5.6c1.3,0.4,2.2,0.9,2.8,1.4c0.5,0.5,0.8,1.1,0.8,1.9
			c0,0.8-0.3,1.4-0.9,1.9c-0.6,0.5-1.5,0.7-2.7,0.7c-1.6,0-3.2-0.5-4.8-1.4l-0.2-0.1l-1,3.1l0.1,0.1c1.7,0.9,3.6,1.4,5.7,1.4
			c2.3,0,4.2-0.6,5.5-1.6c1.4-1.1,2.1-2.6,2.1-4.4C160.3,212.8,159.9,211.7,159.1,210.7"/>
		<path fill="#00AF87" d="M178.8,202.6c-1.7-1.9-4-2.8-6.7-2.8c-2.8,0-5.1,1-6.9,2.8c-1.8,1.9-2.7,4.4-2.7,7.5c0,3,0.9,5.4,2.6,7.2
			c1.8,1.9,4,2.8,6.7,2.8c1.7,0,3.4-0.4,4.9-1.3c1.5-0.8,2.7-2.1,3.5-3.6c0.8-1.6,1.2-3.4,1.2-5.5
			C181.3,206.9,180.5,204.5,178.8,202.6 M171.7,217.2c-1.6,0-2.9-0.7-3.9-2s-1.6-3.1-1.6-5.1c0-2.1,0.5-3.8,1.5-5.2
			c1-1.3,2.4-2,4.1-2c1.7,0,3,0.7,4,2c1,1.4,1.5,3.1,1.5,5c0,2.1-0.5,3.9-1.6,5.2C174.7,216.5,173.3,217.2,171.7,217.2"/>
		<path fill="#00AF87" d="M194.8,199.9c-0.4-0.1-0.8-0.1-1-0.1c-1.2,0-2.3,0.4-3.4,1.2c-0.9,0.6-1.5,1.5-2,2.6l-0.2-3.3h-3.6v0.2
			c0.1,1.6,0.2,3.6,0.2,6.1v13.3h4v-10.3c0-1.9,0.5-3.3,1.4-4.4c0.9-1,2-1.5,3.3-1.5c0.5,0,0.9,0,1.2,0.1h0.2V200L194.8,199.9z"/>
	</g>
	<path fill="#00AF87" d="M3,113C3,52.3,52.3,3,112.9,3s109.9,49.3,109.9,109.9c0,28.3-10.8,54.2-28.4,73.7h4
		c17.1-19.8,27.4-45.5,27.4-73.7C225.8,50.6,175.1,0,112.9,0S0,50.7,0,113c0,28.1,10.3,53.9,27.4,73.7h4C13.8,167.1,3,141.3,3,113"
		/>
	<path fill="#00AF87" d="M6.2,113C6.2,54.2,54.1,6.3,112.9,6.3S219.6,54.2,219.6,113c0,28.5-11.3,54.5-29.6,73.7h2.1
		c18-19.3,29-45.2,29-73.7c0-59.7-48.5-108.2-108.2-108.2S4.7,53.3,4.7,113c0,28.4,11,54.3,29,73.7h2.1
		C17.5,167.5,6.2,141.5,6.2,113"/>
</g>
<g>
	<path fill="#000A12" d="M95.1,41.3v-1.4l1.4-1.3c2.8-2.6,4.1-4,4.1-5.5c0-1-0.6-2-2.1-2c-1,0-1.9,0.5-2.5,1l-0.6-1.6
		c0.8-0.7,2.1-1.2,3.6-1.2c2.6,0,3.9,1.6,3.9,3.6c0,2.1-1.5,3.7-3.5,5.6l-1,0.9v0h4.8v1.8H95.1z"/>
	<path fill="#000A12" d="M113,35.4c0,3.8-1.5,6.1-4.3,6.1c-2.7,0-4.1-2.5-4.2-6c0-3.6,1.5-6.1,4.3-6.1C111.7,29.4,113,31.9,113,35.4
		z M106.8,35.5c0,2.8,0.8,4.3,2,4.3c1.3,0,2-1.6,2-4.4c0-2.7-0.6-4.3-2-4.3C107.6,31.1,106.8,32.5,106.8,35.5z"/>
	<path fill="#000A12" d="M117.9,31.6L117.9,31.6l-2.2,1.1l-0.4-1.7l2.8-1.4h1.9v11.7h-2.1V31.6z"/>
	<path fill="#000A12" d="M131.5,31.4H127l-0.3,2.3c0.3,0,0.5-0.1,0.8-0.1c1,0,2.1,0.2,2.8,0.8c0.9,0.6,1.5,1.5,1.5,3
		c0,2.2-1.9,4.1-4.7,4.1c-1.4,0-2.5-0.3-3.1-0.7l0.5-1.7c0.5,0.3,1.5,0.6,2.6,0.6c1.3,0,2.5-0.7,2.5-2.1c0-1.3-1-2.2-3.3-2.2
		c-0.6,0-1.1,0-1.6,0.1l0.8-5.9h6.1V31.4z"/>
</g>
</svg>
